<svg width="6" height="12" viewBox="0 0 6 12" fill="none" xmlns="http://www.w3.org/2000/svg">
<path d="M0.351562 5.60156L4.85156 1.125C5.0625 0.890625 5.41406 0.890625 5.64844 1.125C5.85938 1.33594 5.85938 1.6875 5.64844 1.89844L1.52344 6L5.625 10.125C5.85938 10.3359 5.85938 10.6875 5.625 10.8984C5.41406 11.1328 5.0625 11.1328 4.85156 10.8984L0.351562 6.39844C0.117188 6.1875 0.117188 5.83594 0.351562 5.60156Z" fill="#9F9F9F"/>
<path d="M0.351562 5.60156L4.85156 1.125C5.0625 0.890625 5.41406 0.890625 5.64844 1.125C5.85938 1.33594 5.85938 1.6875 5.64844 1.89844L1.52344 6L5.625 10.125C5.85938 10.3359 5.85938 10.6875 5.625 10.8984C5.41406 11.1328 5.0625 11.1328 4.85156 10.8984L0.351562 6.39844C0.117188 6.1875 0.117188 5.83594 0.351562 5.60156Z" fill="black" fill-opacity="0.2"/>
</svg>
